<svg width="580" height="400" xmlns="http://www.w3.org/2000/svg">
 <!-- Created with SVG Editor - http://github.com/mzalive/SVG Editor/ -->

 <g>
  <title>background</title>
  <rect fill="#fff" id="canvas_background" height="402" width="582" y="-1" x="-1"/>
  <g display="none" overflow="visible" y="0" x="0" height="100%" width="100%" id="canvasGrid">
   <rect fill="url(#gridpattern)" stroke-width="0" y="0" x="0" height="100%" width="100%"/>
  </g>
 </g>
 <g>
  <title>Layer 1</title>
  <defs>
   <style>.prefix__cls-1{fill:#1a1e28}.prefix__cls-2{fill:#161615}</style>
  </defs>
  <g stroke="null" id="svg_40">
   <g stroke="null" transform="matrix(3.7032073770148504,0,0,5.2225159428678785,-886.1143519389607,-1075.3824558850213) " id="svg_21">
    <g stroke="null" id="svg_32">
     <g stroke="null" id="svg_33">
      <g stroke="null" id="svg_36">
       <g stroke="null" id="svg_37">
        <path stroke="null" class="prefix__cls-1" d="m251.393738,223.534651l5.2,0l0,7.176a6.741,6.741 0 0 1 5.045,-1.975c3.635,0 8.555,2.6 8.555,9.182c0,6.267 -4.356,9.4 -8.774,9.4a5.631,5.631 0 0 1 -4.982,-2.444l-0.063,0l0,1.849l-4.981,0l0,-23.188zm9.243,42.114a4.436,4.436 0 0 0 0.094,-8.868a4.28,4.28 0 0 0 -4.324,4.387a4.233,4.233 0 0 0 4.225,4.481l0.005,0z" id="svg_38"/>
       </g>
      </g>
      <g stroke="null" id="svg_34">
       <path stroke="null" class="prefix__cls-1" d="m275.443738,245.096651a2.189,2.189 0 1 1 -2.175,-2.2a2.2,2.2 0 0 1 2.175,2.2zm-3.9,0a1.715,1.715 0 1 0 1.722,-1.757a1.742,1.742 0 0 0 -1.725,1.757l0.003,0zm1.808,-1.242c0.47,0 0.893,0.2 0.893,0.687a0.606,0.606 0 0 1 -0.4,0.589c0.178,0.075 0.326,0.2 0.349,0.567a1.936,1.936 0 0 0 0.075,0.595l-0.59,0a3.529,3.529 0 0 1 -0.08,-0.584c-0.017,-0.137 -0.051,-0.354 -0.435,-0.354l-0.24,0l0,0.938l-0.607,0l0,-2.438l1.035,0zm-0.423,0.418l0,0.687l0.292,0c0.126,0 0.418,0 0.418,-0.372c0,-0.309 -0.258,-0.315 -0.384,-0.315l-0.326,0z" id="svg_35"/>
      </g>
     </g>
    </g>
    <path stroke="null" class="prefix__cls-2" d="m281.277738,229.155651l5,0a9.428,9.428 0 0 1 5.1,1.053a3.717,3.717 0 0 1 1.574,3.329a3.843,3.843 0 0 1 -0.877,2.6a4.225,4.225 0 0 1 -2.56,1.326l0,0.121q4.031,0.69 4.03,4.237a4.548,4.548 0 0 1 -1.6,3.7a6.818,6.818 0 0 1 -4.484,1.332l-6.174,0l-0.009,-17.698zm2.067,25.276l3.389,0a5.514,5.514 0 0 0 3.135,-0.684a2.639,2.639 0 0 0 0.957,-2.306a2.334,2.334 0 0 0 -1.066,-2.149a6.663,6.663 0 0 0 -3.389,-0.66l-3.026,0l0,5.799zm0,1.743l0,6.622l3.692,0a5.251,5.251 0 0 0 3.226,-0.83a3.06,3.06 0 0 0 1.083,-2.6a2.753,2.753 0 0 0 -1.107,-2.422a5.934,5.934 0 0 0 -3.372,-0.774l-3.522,0.004z" id="svg_31"/>
    <path stroke="null" class="prefix__cls-2" d="m305.893738,246.853651l-0.4,-1.889l-0.1,0a5.58,5.58 0 0 1 -1.979,1.689a6.026,6.026 0 0 1 -2.463,0.442a4.429,4.429 0 0 1 -3.093,-1.017a3.707,3.707 0 0 1 -1.12,-2.893q0,-4.02 6.428,-4.213l2.251,-0.072l0,-0.823a3.363,3.363 0 0 0 -0.672,-2.306a2.759,2.759 0 0 0 -2.148,-0.745a8.765,8.765 0 0 0 -3.753,1.016l-0.617,-1.537a9.52,9.52 0 0 1 2.148,-0.835a9.3,9.3 0 0 1 2.343,-0.3a5.056,5.056 0 0 1 3.517,1.052a4.4,4.4 0 0 1 1.143,3.378l0,9.055l-1.485,-0.002zm-3.055,-1.414a4.081,4.081 0 0 0 2.948,-1.029a3.808,3.808 0 0 0 1.071,-2.881l0,-1.2l-2.009,0.084a7.3,7.3 0 0 0 -3.457,0.746a2.244,2.244 0 0 0 -1.059,2.051a2.07,2.07 0 0 0 0.66,1.659a2.74,2.74 0 0 0 1.842,0.57l0.004,0z" id="svg_30"/>
    <path stroke="null" class="prefix__cls-2" d="m317.251738,247.095651a5.663,5.663 0 0 1 -4.461,-1.773a7.3,7.3 0 0 1 -1.58,-5.018a7.518,7.518 0 0 1 1.6,-5.144a5.776,5.776 0 0 1 4.57,-1.817a9.09,9.09 0 0 1 1.913,0.206a6.338,6.338 0 0 1 1.5,0.485l-0.618,1.707a9.381,9.381 0 0 0 -1.452,-0.443a6.5,6.5 0 0 0 -1.392,-0.176q-4.044,0 -4.044,5.158a6.141,6.141 0 0 0 0.987,3.753a3.434,3.434 0 0 0 2.923,1.307a8.924,8.924 0 0 0 3.4,-0.715l0,1.78a7.252,7.252 0 0 1 -3.346,0.69z" id="svg_29"/>
    <path stroke="null" class="prefix__cls-2" d="m326.168738,240.062651a23.736,23.736 0 0 1 1.586,-1.937l4.286,-4.54l2.385,0l-5.375,5.654l5.75,7.614l-2.433,0l-4.686,-6.271l-1.513,1.308l0,4.963l-1.985,0l0,-18.836l1.985,0l0,9.987q0,0.666 -0.1,2.058l0.1,0z" id="svg_28"/>
    <path stroke="null" class="prefix__cls-2" d="m346.793738,243.234651a3.323,3.323 0 0 1 -1.38,2.856a6.485,6.485 0 0 1 -3.874,1a8.418,8.418 0 0 1 -4.115,-0.835l0,-1.864a10.009,10.009 0 0 0 2.051,0.763a8.6,8.6 0 0 0 2.113,0.278a4.79,4.79 0 0 0 2.421,-0.5a1.729,1.729 0 0 0 0.175,-2.856a10.549,10.549 0 0 0 -2.621,-1.3a14.278,14.278 0 0 1 -2.632,-1.2a3.6,3.6 0 0 1 -1.163,-1.168a3.063,3.063 0 0 1 -0.38,-1.562a2.974,2.974 0 0 1 1.319,-2.56a6.149,6.149 0 0 1 3.619,-0.939a10.592,10.592 0 0 1 4.189,0.872l-0.714,1.634a9.611,9.611 0 0 0 -3.62,-0.823a4.161,4.161 0 0 0 -2.155,0.448a1.385,1.385 0 0 0 -0.726,1.234a1.509,1.509 0 0 0 0.272,0.909a2.689,2.689 0 0 0 0.878,0.713a19.413,19.413 0 0 0 2.324,0.981a8.685,8.685 0 0 1 3.19,1.731a3.058,3.058 0 0 1 0.829,2.188z" id="svg_27"/>
    <path stroke="null" class="prefix__cls-2" d="m355.356738,245.437651a6.5,6.5 0 0 0 1.03,-0.079a6.931,6.931 0 0 0 0.786,-0.163l0,1.537a3.717,3.717 0 0 1 -0.962,0.261a7.293,7.293 0 0 1 -1.144,0.1q-3.849,0 -3.849,-4.056l0,-7.89l-1.9,0l0,-0.968l1.9,-0.836l0.846,-2.832l1.162,0l0,3.074l3.85,0l0,1.562l-3.85,0l0,7.808a2.681,2.681 0 0 0 0.57,1.84a1.977,1.977 0 0 0 1.561,0.642z" id="svg_26"/>
    <path stroke="null" class="prefix__cls-2" d="m368.930738,246.853651l-0.4,-1.889l-0.1,0a5.588,5.588 0 0 1 -1.979,1.689a6.031,6.031 0 0 1 -2.464,0.442a4.431,4.431 0 0 1 -3.093,-1.017a3.71,3.71 0 0 1 -1.12,-2.893q0,-4.02 6.429,-4.213l2.251,-0.072l0,-0.823a3.363,3.363 0 0 0 -0.672,-2.306a2.759,2.759 0 0 0 -2.148,-0.745a8.765,8.765 0 0 0 -3.753,1.016l-0.618,-1.537a9.547,9.547 0 0 1 2.149,-0.835a9.3,9.3 0 0 1 2.343,-0.3a5.051,5.051 0 0 1 3.516,1.052a4.4,4.4 0 0 1 1.144,3.378l0,9.055l-1.485,-0.002zm-3.052,-1.414a4.083,4.083 0 0 0 2.949,-1.029a3.808,3.808 0 0 0 1.071,-2.881l0,-1.2l-2.01,0.084a7.3,7.3 0 0 0 -3.456,0.746a2.244,2.244 0 0 0 -1.059,2.051a2.066,2.066 0 0 0 0.66,1.659a2.735,2.735 0 0 0 1.845,0.57z" id="svg_25"/>
    <path stroke="null" class="prefix__cls-2" d="m385.784738,233.585651l0,1.272l-2.457,0.29a4.328,4.328 0 0 1 0.871,2.651a3.923,3.923 0 0 1 -1.331,3.112a5.377,5.377 0 0 1 -3.656,1.162a6.045,6.045 0 0 1 -1.114,-0.1a1.979,1.979 0 0 0 -1.283,1.707a0.869,0.869 0 0 0 0.448,0.806a3.281,3.281 0 0 0 1.538,0.259l2.347,0a5.26,5.26 0 0 1 3.312,0.909a3.154,3.154 0 0 1 1.155,2.638a3.769,3.769 0 0 1 -1.767,3.36a9.465,9.465 0 0 1 -5.157,1.156a7.036,7.036 0 0 1 -4.012,-0.969a3.124,3.124 0 0 1 -1.411,-2.735a3.07,3.07 0 0 1 0.775,-2.095a3.945,3.945 0 0 1 2.179,-1.2a2.107,2.107 0 0 1 -0.854,-0.714a1.9,1.9 0 0 1 -0.345,-1.126a2.132,2.132 0 0 1 0.388,-1.271a4.058,4.058 0 0 1 1.223,-1.053a3.579,3.579 0 0 1 -1.677,-1.441a4.232,4.232 0 0 1 -0.648,-2.324a4.294,4.294 0 0 1 1.307,-3.359a5.34,5.34 0 0 1 3.7,-1.181a6.749,6.749 0 0 1 1.876,0.242l4.593,0.004zm-15.173,15.491a1.8,1.8 0 0 0 0.908,1.634a5.016,5.016 0 0 0 2.6,0.557a7.266,7.266 0 0 0 3.746,-0.756a2.317,2.317 0 0 0 1.217,-2.052a1.623,1.623 0 0 0 -0.666,-1.495a5.178,5.178 0 0 0 -2.506,-0.418l-2.41,0a3.175,3.175 0 0 0 -2.13,0.653a2.337,2.337 0 0 0 -0.759,1.877zm1.09,-11.246a2.7,2.7 0 0 0 0.786,2.107a3.141,3.141 0 0 0 2.191,0.714q2.941,0 2.942,-2.857q0,-2.989 -2.978,-2.99a2.946,2.946 0 0 0 -2.179,0.763a3.07,3.07 0 0 0 -0.763,2.263l0.001,0z" id="svg_24"/>
    <path stroke="null" class="prefix__cls-2" d="m394.214738,247.095651a6.1,6.1 0 0 1 -4.643,-1.792a6.932,6.932 0 0 1 -1.7,-4.975a7.693,7.693 0 0 1 1.579,-5.1a5.25,5.25 0 0 1 4.243,-1.881a5,5 0 0 1 3.946,1.641a6.285,6.285 0 0 1 1.454,4.327l0,1.271l-9.14,0a5.257,5.257 0 0 0 1.18,3.547a4.083,4.083 0 0 0 3.154,1.211a10.686,10.686 0 0 0 4.236,-0.9l0,1.792a10.67,10.67 0 0 1 -2.015,0.659a11.269,11.269 0 0 1 -2.294,0.2zm-0.545,-12.069a3.282,3.282 0 0 0 -2.548,1.041a4.8,4.8 0 0 0 -1.12,2.881l6.936,0a4.421,4.421 0 0 0 -0.846,-2.911a2.984,2.984 0 0 0 -2.422,-1.011z" id="svg_23"/>
    <path stroke="null" fill="none" d="m240.388757,214.534651l159,0l0,40l-159,0l0,-40z" id="svg_22"/>
   </g>
  </g>
  <text font-weight="bold" style="cursor: move;" stroke="#000" transform="matrix(2.0720787048339844,0,0,6.071555137634277,-203.15891456604004,-772.8574571460485) " xml:space="preserve" text-anchor="start" font-family="Arvo, sans-serif" font-size="24" id="svg_41" y="165.92958" x="140.341267" stroke-width="0" fill="#97944B">НИКИТА ЛУЧШЕ</text>
  <line stroke-linecap="undefined" stroke-linejoin="undefined" id="svg_42" y2="277" x2="588.5" y1="73" x1="25.5" stroke-width="5" stroke="#ff0f0f" fill="none"/>
  <line stroke-linecap="undefined" stroke-linejoin="undefined" id="svg_44" y2="298" x2="30.5" y1="38" x1="556.5" stroke-width="5" stroke="#ff0f0f" fill="none"/>
  <text xml:space="preserve" text-anchor="start" font-family="Arvo, sans-serif" font-size="24" id="svg_45" y="33" x="-39.5" stroke-width="0" stroke="#000" fill="#FFF093"/>
 </g>
</svg>